/* XPM */
static char *result[] = {
/* columns rows colors chars-per-pixel */
"96 128 23 1 ",
"  c #323234",
". c #295E00",
"X c #4F422F",
"o c #444444",
"O c #5F5744",
"+ c #545456",
"@ c #6C5F46",
"# c #6F634C",
"$ c #796B50",
"% c #6D6D6E",
"& c #6C6C73",
"* c #887C62",
"= c #439C00",
"- c #9F8E6D",
"; c #AD9A73",
": c #81818A",
"> c #84848C",
", c #92929C",
"< c #A7A7A9",
"1 c #D3D2E0",
"2 c #E8E7EF",
"3 c white",
"4 c None",
/* pixels */
"444444444444444444444444444444444444444444444444444444444444444444444444444444444444444444444444",
"444444444444444444444444444444444444444444444444444444444444444444444444444444444444444444444444",
"444444444444444444444444444444444444444444444444444444444444444444444444444444444444444444444444",
"44444444444444444444444444444444444444444444         4444444444444444444444444444444444444444444",
"444444444444         4444444444444444444444 +%%%%%%%+ 4444444444444444444444         44444444444",
"44444444444 +%%%%%%%+ 44444444444444444444 o%%%%%%%%%o 44444444444444444444 +%%%%%%%+ 4444444444",
"4444444444 o%%%%%%%%%o 4444444444444444444 o+%%%%%%%+o 4444444444444444444 o%%%%%%%%%o 444444444",
"4444444444 o+%%%%%%%+o 4444444444444444444o<+++++++++<o4444444444444444444 o+%%%%%%%+o 444444444",
"4444444444o<+++++++++<o444444444444444444 <<111111111<< 444444444444444444o<+++++++++<o444444444",
"444444444 <<111111111<< 44444444444444  o++<111111111<++o  44444444444444 <<111111111<< 44444444",
"444444  o++<111111111<++o  4444444444 o+%%+++++++++++++%%+o 4444444444  o++<111111111<++o  44444",
"44444 o+%%+++++++++++++%%+o 4444444444  o+%%%%%%%%%%%%%+o  4444444444 o+%%+++++++++++++%%+o 4444",
"444444  o+%%%%%%%%%%%%%+o  4444444444444    ooooooooo    4444444444444  o+%%%%%%%%%%%%%+o  44444",
"44444444    ooooooooo    444444444444444X#$ oo ;$;;;X;$#X444444444444444    ooooooooo    4444444",
"44444444X#$ oo ;$;;;X;$#X444444444444444X- o++o ;;;XX;;-X444444444444444X#$ oo ;$;;;X;$#X4444444",
"44444444X- o++o ;;;XX;;-X44444444444444XX# o++o 3;;3.;$#XX44444444444444X- o++o ;;;XX;;-X4444444",
"4444444XX# o++o 3;;3.;$#XX44444444444444X-; oo 333;==;;-X44444444444444XX# o++o 3;;3.;$#XX444444",
"44444444X-; oo 333;==;;-X44444444444444XXOo$;;33X33;;$#OXX44444444444444X-; oo 333;==;;-X4444444",
"4444444XXOo$;;33X33;;$#OXX444444444444444 *2333>1>3332*X444444444444444XXOo$;;33X33;;$#OXX444444",
"444444444 *2333>1>3332*X444444444444444444XX112222211XX444444444444444444 *2333>1>3332*X44444444",
"4444444444XX112222211XX444444444444444444 ooXXXXXXXXXoo 444444444444444444XX112222211XX444444444",
"444444444 ooXXXXXXXXXo+ 4444444444444444  Xo++ooooo++oX  4444444444444444 +oXXXXXXXXXoo 44444444",
"44444444  Xo++ooooo+++X  444444444444444 X#;o+%%%%%+o;#X 444444444444444  X+++ooooo++oX  4444444",
"4444444  X1*o+%%%%%+o$-Xo 44444444444444X1-OX++%%%++XO-1X44444444444444 oX-$o+%%%%%+o*1X  444444",
"4444444  X11X++%%%++*33X+o 444444444444 X11XX3333333XX11X 444444444444 o+X33*++%%%++X11X  444444",
"444444    XXX3333333X33X+o 444444444444  XX X#33333#X XX&X444444444444 o+X33X3333333XXX    44444",
"444444      X-33333-XXXo++ 444444444444     X-*111*-XXX&&X444444444444 ++oXXX-33333-XXXX   44444",
"444444      X#*111*OX&X+++ 444444444444     X##XXX##X&&&X 444444444444 +++  XO*111*#X&&&XX 44444",
"4444444 44  X;$XXX1X&X ++ 44444444444444 444X2-XXX-2XXXX 44444444444444 ++   X1XXX$;XXX&&&X44444",
"444444444444X33X4XXXX44  4444444444444444444X11X4X11X4444444444444444444  4444XX4X33X44XXX444444",
"444444444444X22X44444444444444444444444444444XX444XX44444444444444444444444444444X22X44444444444",
"4444444444444XX4444444444444444444444444444444444444444444444444444444444444444444XX444444444444",
"444444444444444444444444444444444444444444444444444444444444444444444444444444444444444444444444",
"444444444444444444444444444444444444444444444444444444444444444444444444444444444444444444444444",
"444444444444444444444444444444444444444444444444444444444444444444444444444444444444444444444444",
"44444444444444444444444444444444444444444444         4444444444444444444444444444444444444444444",
"444444444444         4444444444444444444444 +%%%%%%%+ 4444444444444444444444         44444444444",
"44444444444 +%%%%%%%+ 44444444444444444444 o%%%%%%%%%o 44444444444444444444 +%%%%%%%+ 4444444444",
"4444444444 o%%%%%%%%%o 4444444444444444444 o+%%%%%%%+o 4444444444444444444 o%%%%%%%%%o 444444444",
"4444444444 o+%%%%%%%+o 4444444444444444444o<+++++++++<o4444444444444444444 o+%%%%%%%+o 444444444",
"4444444444o<+++++++++<o444444444444444444 <<111111111<< 444444444444444444o<+++++++++<o444444444",
"444444444 <<111111111<< 44444444444444  o++<111111111<++o  44444444444444 <<111111111<< 44444444",
"444444  o++<111111111<++o  4444444444 o+%%+++++++++++++%%+o 4444444444  o++<111111111<++o  44444",
"44444 o+%%+++++++++++++%%+o 4444444444  o+%%%%%%%%%%%%%+o  4444444444 o+%%+++++++++++++%%+o 4444",
"444444  o+%%%%%%%%%%%%%+o  4444444444444    ooooooooo    4444444444444  o+%%%%%%%%%%%%%+o  44444",
"44444444    ooooooooo    444444444444444 o $;;;X;;$$$$$OX444444444444444    ooooooooo    4444444",
"44444444 o $;$;X;;$$$$$OX444444444444444 o+ ;;XX;;;;;;;-X444444444444444 o $;;;X;;$$$$$OX4444444",
"44444444 o+ ;;XX;;;;;;;-X444444444444444 o+ ;;3.;;$$@X$#X444444444444444 o+ ;;XX;;;;;;;-X4444444",
"44444444 o+ ;;3.;;$$@X$#X444444444444444 o 33;==;;;;;;;-X444444444444444 o+ ;;3.;;$$@X$#X4444444",
"44444444 o 33;==;;;;;;;-X444444444444444X12X33;;;$$$@X$OX444444444444444 o 33;==;;;;;;;-X4444444",
"44444444X12X33;;;$$$@X$OX4444444444444444X>1>33333;;;;-X4444444444444444X12X33;;;$$$@X$OX4444444",
"444444444X>1>33333;;;;-X444444444444444444XX12222222  X444444444444444444X>1>33333;;;;-X44444444",
"4444444444XX12222222  X444444444444444444444XXXXXXX oo 4444444444444444444XX12222222   444444444",
"444444444444XXXXXXX oo 44444444444444444444 ooo+++o++++ 44444444444444444444XXXXXXXo%+o 44444444",
"44444444444 ooo++%%%+%o 4444444444444444444 o+%%%++;#o%o 444444444444444444 ooo+++o%++%+ 4444444",
"44444444444 o+%%%%;;o%+o 444444444444444444 oo+++2X$;X%+ 444444444444444444 o+%%%++;$-X%o 444444",
"44444444444 oo++X;$#X%+o 4444444444444444444X13332X33X%+o 4444444444444444X oo+++2*X;32%+o 44444",
"444444444444X13X33-XX%+oo 4444444444444444444X1322X22X%+o 4444444444444444X1X13332-X232X%+ 44444",
"4444444444444X1X22X*X%%+o 4444444444444444444XO11-*XXX++o 44444444444444444XXX132-#OX2X %+o 4444",
"444444444444XO*1XX*OX+%+o 4444444444444444444X*X##OX&:++o 4444444444444444444X*1---*XX  %+o 4444",
"44444444444X1*XX--#*XX%  44444444444444444444X1X--1XXX+o 444444444444444444444X-##OX&&XX%+ X4444",
"44444444444X11X4X#-11X 44444444444444444444444XX111X44  444444444444444444444X22--XXX:::+ X44444",
"444444444444XX444X11X444444444444444444444444444XXX44444444444444444444444444X111X444XXX X444444",
"444444444444444444XX4444444444444444444444444444444444444444444444444444444444XXX444444444444444",
"444444444444444444444444444444444444444444444444444444444444444444444444444444444444444444444444",
"444444444444444444444444444444444444444444444444444444444444444444444444444444444444444444444444",
"444444444444444444444444444444444444444444444444444444444444444444444444444444444444444444444444",
"44444444444444444444444444444444444444444444         4444444444444444444444444444444444444444444",
"444444444444         4444444444444444444444 +%%%%%%%+ 4444444444444444444444         44444444444",
"44444444444 +%%%%%%%+ 44444444444444444444 o%%%%%%%%%o 44444444444444444444 +%%%%%%%+ 4444444444",
"4444444444 o%%%%%%%%%o 4444444444444444444 o+%%%%%%%+o 4444444444444444444 o%%%%%%%%%o 444444444",
"4444444444 o+%%%%%%%+o 4444444444444444444o<+++++++++<o4444444444444444444 o+%%%%%%%+o 444444444",
"4444444444o<+++++++++<o444444444444444444 <<111111111<< 444444444444444444o<+++++++++<o444444444",
"444444444 <<111111111<< 44444444444444  o++<111111111<++o  44444444444444 <<111111111<< 44444444",
"444444  o++<111111111<++o  4444444444 o+%%+++++++++++++%%+o 4444444444  o++<111111111<++o  44444",
"44444 o+%%+++++++++++++%%+o 4444444444  o+%%%%%%%%%%%%%+o  4444444444 o+%%+++++++++++++%%+o 4444",
"444444  o+%%%%%%%%%%%%%+o  4444444444444    ooooooooo    4444444444444  o+%%%%%%%%%%%%%+o  44444",
"44444444    ooooooooo    444444444444444XO$$$$$; oo ;$;*X444444444444444    ooooooooo    4444444",
"44444444XO$$$$$; oo ;$;*X444444444444444X-;;;;; o++o ;;XX444444444444444XO$$$$$; oo ;$;*X4444444",
"44444444X-;;;;; o++o ;;XX444444444444444X#$X@$$ o++o 3;3X444444444444444X-;;;;; o++o ;;XX4444444",
"44444444X#$X@$$ o++o 3;3X444444444444444 -;;;;;; oo 333=X444444444444444X#$X@$$ o++o 3;3X4444444",
"44444444 -;;;;;; oo 333=X444444444444444Xo$X@$oo;;;33X21X444444444444444 -;;;;;; oo 333=X4444444",
"44444444Xo$X@$oo;;;33X21X4444444444444444Xoooo;33333>1>X4444444444444444Xo$X@$oo;;;33X21X4444444",
"444444444Xoooo;33333>1>X444444444444444444X  22222221XX444444444444444444Xoooo;33333>1>X44444444",
"4444444444   22222221XX4444444444444444444 oo XXXXXXX444444444444444444444X  22222221XX444444444",
"444444444 o+%oXXXXXXX44444444444444444444 ++++o+++ooo 44444444444444444444 oo XXXXXXX44444444444",
"44444444 +%++%o+++ooo 444444444444444444 o%o#;++%%%+o 4444444444444444444 o%+%%%++ooo 4444444444",
"4444444 o%X-$;++%%%+o 444444444444444444 +%X;$X2+++oo 444444444444444444 o+%o;;%%%%+o 4444444444",
"444444 o+%23;X*2+++oo X4444444444444444 o+%X33X23331X4444444444444444444 o+%X#$;X++oo 4444444444",
"444444 +%X232X-23331X1X4444444444444444 o+%X22X2231X4444444444444444444 oo+%XX-33X31X44444444444",
"44444 o+% X2XO#-231XXX44444444444444444 o++XXX*-11OX4444444444444444444 o+%%X*X22X1X444444444444",
"44444 o+%  XX*---1*X4444444444444444444 o++:&XO##X*X4444444444444444444 o+%+XO*XX1*OX44444444444",
"44444X +%XX&&XO##-X444444444444444444444 o+XXX1--X1X44444444444444444444  %XX*#--XX*1X4444444444",
"444444X +:::XXX--22X444444444444444444444  44X111XX44444444444444444444444 X11-#X4X11X4444444444",
"4444444X XXX444X111X44444444444444444444444444XXX444444444444444444444444444X11X444XX44444444444",
"4444444444444444XXX4444444444444444444444444444444444444444444444444444444444XX44444444444444444",
"444444444444444444444444444444444444444444444444444444444444444444444444444444444444444444444444",
"444444444444444444444444444444444444444444444444444444444444444444444444444444444444444444444444",
"444444444444444444444444444444444444444444444444444444444444444444444444444444444444444444444444",
"44444444444444444444444444444444444444444444         4444444444444444444444444444444444444444444",
"444444444444         4444444444444444444444 +%%%%%%%+ 4444444444444444444444         44444444444",
"44444444444 +%%%%%%%+ 44444444444444444444 o%%%%%%%%%o 44444444444444444444 +%%%%%%%+ 4444444444",
"4444444444 o%%%%%%%%%o 4444444444444444444 o+%%%%%%%+o 4444444444444444444 o%%%%%%%%%o 444444444",
"4444444444 o+%%%%%%%+o 4444444444444444444o<+++++++++<o4444444444444444444 o+%%%%%%%+o 444444444",
"4444444444o<+++++++++<o444444444444444444 <<111111111<< 444444444444444444o<+++++++++<o444444444",
"444444444 <<111111111<< 44444444444444  o++<111111111<++o  44444444444444 <<111111111<< 44444444",
"444444  o++<111111111<++o  4444444444 o+%%+++++++++++++%%+o 4444444444  o++<111111111<++o  44444",
"44444 o+%%+++++++++++++%%+o 4444444444 ++%%%%%%%%%%%%%%%++ 4444444444 o+%%+++++++++++++%%+o 4444",
"444444 ++%%%%%%%%%%%%%%%++ 444444444444  o+%%%%%%%%%%%+o  444444444444 ++%%%%%%%%%%%%%%%++ 44444",
"4444444  o+%%%%%%%%%%%+o  44444444444444X   ooooooooo   X44444444444444  o+%%%%%%%%%%%+o  444444",
"44444444X   ooooooooo   X444444444444444X-;;;;$;$o$;;;;-X444444444444444X   ooooooooo   X4444444",
"44444444X-;;;;$;$o$;;;;-X44444444444444XX#$$;;;;$;o;;$$#XX44444444444444X-;;;;$;$o$;;;;-X4444444",
"4444444XX#$$;;;;$;o;;$$#XX44444444444444X--;$$;;;;;o$;--X44444444444444XX#$$;;;;$;o;;$$#XX444444",
"44444444X--;$$;;;;;o$;--X44444444444444XXO#-;;;;;;;;oo#OXX44444444444444X--;$$;;;;;o$;--X4444444",
"4444444XXO#-;;;;;;;;oo#OXX444444444444444X*####---####  444444444444444XXO#-;;;;;;;;oo#OXX444444",
"444444444X*####---####  44444444444444444 XX**-----**XX 44444444444444444X*####---####  44444444",
"444444444 XX**-----**XX 4444444444444444 o oXXXXXXXXXo o 4444444444444444 XX**-----**XX 44444444",
"444444444  oXXXXXXXXXo  4444444444444444 o  ++%%%%%++  o 4444444444444444  oXXXXXXXXXo  44444444",
"44444444 o o+++++++++oo+ 44444444444444 o oo+++++++++oo o 44444444444444 +oo+++++++++o o 4444444",
"44444444 o o++%%%%%+++o+% 4444444444444 o o+++%%%%%+++o o 4444444444444 %+o+++%%%%%++o o 4444444",
"44444444 o o++%%%%%%++++%+ 444444444444 ooo++%%%%%%%++ooo 444444444444 +%++++%%%%%%++o o 4444444",
"44444444 oo++%%%+%%%+o++%%o44444444444 oooo++%%%%%%%++oooo 44444444444o%%++o+%%%+%%%++oo 4444444",
"44444444 oo++%%%+%%%%o++%%+ 4444444444 ooo++%%%%%%%%%++ooo 4444444444 +%%++o%%%%+%%%++oo 4444444",
"44444444 oo++++%++%%%+o++%+ 44444444444  o++%%+++++%%++o  44444444444 +%++o+%%%++%++++oo 4444444",
"444444444 o+oooo+++%%+ooo  4444444444444X               44444444444444  ooo+%%+++oooo+o 44444444",
"4444444444 oX33Xo        4444444444444444XXXXXXX4X11X444444444444444444X        oX33Xo 444444444",
"444444444444X22X44444444444444444444444444444XX444XX444444444444444444X&:,,,,:XX4X22X44444444444",
"4444444444444XX44444444444444444444444444444444444444444444444444444444XXXXXXX4444XX444444444444"
};
