/* XPM */
static char *result[] = {
/* columns rows colors chars-per-pixel */
"96 128 11 1 ",
"  c #2E1E22",
". c #332F2A",
"X c #760000",
"o c #4C453D",
"O c #645E55",
"+ c #7D766C",
"@ c #857C57",
"# c #A29973",
"$ c #C1B99C",
"% c #D9D9DD",
"& c None",
/* pixels */
"&&&&&&&&&&&&&&&&&&&&&&&&&&&&&&&&&&&&&&&&&&&&&&&&&&&&&&&&&&&&&&&&&&&&&&&&&&&&&&&&&&&&&&&&&&&&&&&&",
"&&&&&&&&&&&&&&&&&&&&&&&&&&&&&&&&&&&&&&&&&&&&&&&&...&&&&&&&&&&&&&&&&&&&&&&&&&&&&&&&&&&&&&&&&&&&&&",
"&&&&&&&&&&&&&&&&&&&&&.&&&&&&&&&&&&&&&&&&&&&&&&&.oOO.&&&&&&&&&&&&&&&&&&&&&&&&&...&&&&&&&&&&&&&&&&",
"&&&&&&&&&&&&&&&&&&&&.o.&&&&&&&&&&&&&&&&&&&&&&&&&.o+O.&&&&&&&&&&&&&&&&&&&&&&&.O+O..&&&&&&&&&&&&&&",
"&&&&&&&&&&&&&&&&&&&&.+o.&&&&&&&&&&&&&&&&&&&&&&&&&.++#.&&&&&&&&&&&&&&&&&&&&&&&.O++@.&&&&&&&&&&&&&",
"&&&&&&&&&&&&&&&&&&&&.+O.&&&&&&&&&&&&&&&&&&&&&&&&&.++#.&&&&&&&&&&&&&&&&&&&&&&&&.O+#@.&&&&&&&&&&&&",
"&&&&&&&&&&&&&&&&&&&.++O.&&&&&&&&&&&&&&&&&&&&&&&&&.+O@.&&&&&&&&&&&&&&&&&&&&&&&&&.++#.&&&&&&&&&&&&",
"&&&&&&&&&&&&&&&&&&.O+Oo.&&&&&&&&&&&&&&&&&&&&&&&&.oO@.&&&&&&&&&&&&&&&&&&&&&&&&&&.O+#.&&&&&&&&&&&&",
"&&&&&&&&&&&&&&&&&.O+Oo.&&&&&&&&&&&&&&&&&&&&&&&......&&&&&&&&&&&&&&&&&&&&&&&&&&&.oO@.&&&&&&&&&&&&",
"&&&&&&&&&&&&&&.....oo.&&&&&&&&&&&&&&&&&&&&&&..oOOOo..&&&&&&&&&&&&&&&&&&&&&&&&&.....&&&&&&&&&&&&&",
"&&&&&&&&&&&&..oOOOo..&&&&&&&&&&&&&&&&&&&&&&.oOO+++OOo.&&&&&&&&&&&&&&&&&&&&&&..oOOOo..&&&&&&&&&&&",
"&&&&&&&&&&&.oOO+++OOo.&&&&&&&&&&&&&&&&&&&&.o.O+++++O.o.&&&&&&&&&&&&&&&&&&&&.oOO+++OOo.&&&&&&&&&&",
"&&&&&&&&&&.o.O+++++O.o.&&&&&&&&&&&&&&&&&&&.+o.OOOOO.o+.&&&&&&&&&&&&&&&&&&&.o.O+++++O.o.&&&&&&&&&",
"&&&&&&&&&&.+o.OOOOO.o+.&&&&&&&&&&&&&&&&&&&.#+o.....o+#.&&&&&&&&&&&&&&&&&&&.+o.OOOOO.o+.&&&&&&&&&",
"&&&&&&&&&&.#+o.....o+#.&&&&&&&&&&&&&&&&&&.o$#O.ooo.O#$o.&&&&&&&&&&&&&&&&&&.#+o.....o+#.&&&&&&&&&",
"&&&&&&&&&.o$#O.ooo.O#$o.&&&&&&&&&&&&&&&&&.o$O+OOOOO+O$o.&&&&&&&&&&&&&&&&&.o$#O.ooo.O#$o.&&&&&&&&",
"&&&&&&&&&.o$O+OOOOO+O$o.&&&&&&&&&&&&&&&&&.oO+++++++++Oo.&&&&&&&&&&&&&&&&&.o$O+OOOOO+O$o.&&&&&&&&",
"&&&&&&&&&.oO+++++++++Oo.&&&&&&&&&&&&&&&&.ooOO+++++++OOoo.&&&&&&&&&&&&&&&&.oO+++++++++Oo.&&&&&&&&",
"&&&&&&&&.ooOO+++++++OOoo.&&&&&&&&&&&&&&&.ooo..O+++O..ooo.&&&&&&&&&&&&&&&.ooOO+++++++OOoo.&&&&&&&",
"&&&&&&&&.ooo..O+++O..ooo.&&&&&&&&&&&&&&&.oo. %oOOOo% .oo.&&&&&&&&&&&&&&&.ooo..O+++O..ooo.&&&&&&&",
"&&&&&&&&.oo. %oOOOo% .oo.&&&&&&&&&&&&&&&.oOOXXoOOOoXXOOo.&&&&&&&&&&&&&&&.oo. %oOOOo% .oo.&&&&&&&",
"&&&&&&&&.oOOXXoOOOoXXOOo.&&&&&&&&&&&&&&&&.oOOOO+++OOOOo.&&&&&&&&&&&&&&&&.oOOXXoOOOoXXOOo.&&&&&&&",
"&&&&&&&&&.oOOOO+++OOOOo.&&&&&&&&&&&&&&&&&..@OO+++++OO@..&&&&&&&&&&&&&&&&&.oOOOO+++OOOOo.&&&&&&&&",
"&&&&&&&&&..@OO+++++OO@..&&&&&&&&&&&&&&&&&.o.@#$. .$#@.o.&&&&&&&&&&&&&&&&&..@OO+++++OO@..&&&&&&&&",
"&&&&&&&&&.o.@#$. .$#@.o.&&&&&&&&&&&&&&&&&.oo.@##@##@.oo.&&&&&&&&&&&&&&&&&.o.@#$. .$#@.o.&&&&&&&&",
"&&&&&&&&&.oO.@##@##@.oo.&&&&&&&&&&&&&&&&&.oOo..@@@..oOo.&&&&&&&&&&&&&&&&&.oo.@##@##@.Oo.&&&&&&&&",
"&&&&&&&&&.o+O..@@@..oO.&&&&&&&&&&&&&&&&&&&.OOo.....oOO.&&&&&&&&&&&&&&&&&&&.Oo..@@@..O+o.&&&&&&&&",
"&&&&&&&&&&.++O.....oOo.&&&&&&&&&&&&&&&&&&&.O+o.&&&.o+O.&&&&&&&&&&&&&&&&&&&.oOo.....O++.&&&&&&&&&",
"&&&&&&&&&&.O++o.&.ooo.&&&&&&&&&&&&&&&&&&&&.++O.&&&.O++.&&&&&&&&&&&&&&&&&&&&.ooo.&.o++O.&&&&&&&&&",
"&&&&&&&&&&&o++O.&&...&&&&&&&&&&&&&&&&&&&&&.O++.&&&.++O.&&&&&&&&&&&&&&&&&&&&&...&&.O++o&&&&&&&&&&",
"&&&&&&&&&&&.O++.&&&&&&&&&&&&&&&&&&&&&&&&&&&...&&&&&...&&&&&&&&&&&&&&&&&&&&&&&&&&&.++O.&&&&&&&&&&",
"&&&&&&&&&&&&&&&&&&&&&&&&&&&&&&&&&&&&&&&&&&&&&&&&&&&&&&&&&&&&&&&&&&&&&&&&&&&&&&&&&&&&&&&&&&&&&&&&",
"&&&&&&&&&&&&&&&&&&&&&&&&&&&&&&&&&&&&&&&&&&&&&&&&&&&&&&&&&&&&&&&&&&&&&&&&&&&&&&&&&&&&&&&&&&&&&&&&",
"&&&&&&&&&&&&&&&&&&&&&&&&&&&&&&&&&&&&&&&&&&&&&&&&&&&&&&&&&&&&&&&&&&&&&&&&&&&&&&&&&&&&&&&&&&&&&&&&",
"&&&&&&&&&&&&&&&&&&&&&&&&&&&&&&&&&&&&&&&&&&&&&&&&&&&&&&&&&&&&&&&&&&&&&&&&&&&&&&&&&&&&&&&&&&&&&&&&",
"&&&&&&&&&&&&&&&&&&&&&&&&&&&&&&&&&&&&&&&&&&&&&&&&&&&&&&&&&&&&&&&&&&&&&&&&&&&&&&&&&&&&&&&&&&&&&&&&",
"&&&&&&&&&&&&&&&&&&&&&&&&&&&&&&&&&&&&&&&&&&&&&&&&&&&&&&&&&&&&&&&&&&&&&&&&&&&&&&&&&&&&&&&&&&&&&&&&",
"&&&&&&&&&&&&&&&&&&&&&&&&&&&&&&&&&&&&&&&&&&&&&&&&&&&&&&&&&&&&&&&&&&&&&&&&&&&&&&&&&&&&&&&&&&&&&&&&",
"&&&&&&&&&&&&&&&&&&&&&&&&&&&&&&&&&&&&&&&&&&&&&&&&&&&&&&&&&&&&&&&&&&&&&&&&&&&&&&&&&&&&&&&&&&&&&&&&",
"&&&&&&&&&&&&&&&&&&&&&&&&&&&&&&&&&&&&&&&&&&&&&&&&&&&&&&&&&&&&&&&&&&&&&&&&&&&&&&&&&&&&&&&&&&&&&&&&",
"&&&&&&&&&&&&&&&&&&&&&&&&&&&&&&&&&&&&&&&&&&&.&&&&&&&&&&&&&&&&&&&&&&&&&&&&&&&&&&&&&&&&&&&&&&&&&&&&",
"&&&&&&&&&&&.&&&&&&&&&&&&&&&&&&&&&&&&&&&&&&.o.&&&&&&&&&&&&&&&&&&&&&&&&&&&&&&.&&&&&&&&&&&&&&&&&&&&",
"&&&&&&&&&&.o.&&&&&&&&&&&&&&&&&&&&&&&&&&&&.o+o.&&&&&&&&&&&&&&&&&&&&&&&&&&&&.o.&&&&&&&&&&&&&&&&&&&",
"&&&&&&&&&.o+o.&&&&&&&&&&&&&&&&&&&&&&&&&&..+#o.&&&&&&&&&&&...&&&&&&&&&&&&&.o+o.&&&&&&&&&&&&&&&&&&",
"&&&&&&&&..+#o.&&&&&&&&&&&&&&&&&&&&&&&&..o.#$#o.&&&&&&&&&.O+@.&&&&&&&&&&&..+#o.&&&&&&&&&&&&&&&&&&",
"&&&&&&..o.#$#o.&&&&&&&&&&&&&&&&&&&&&&.oOOO+$#O.&&&&&&&&&&.o+@.&&&&&&&&..o.#$#o.&&&&&&&&&&&&.&&&&",
"&&&&&.oOOO+$#O.&&&&&&&&&&....&&&&&&&.oO++++O#Oo.&&&&&&&&&&.+#@.&&&&&&.oOOO+$#O.&&&&&&&&&&&.o.&&&",
"&&&&.oO++++O#Oo.&&&&&&&&.O++O.&&&&&.oO++++++OOO.&&&&&&&&&&.+#@.&&&&&.oO++++O#Oo.&&&&&&&&&&.O#.&&",
"&&&.oO++++++OOO.&&&&&&&&&.$$#@.&&&&.O+++++++++Oo.&&&&&&&&&.+#@.&&&&.oO++++++OOO.&&&&&&&&&&.+$@.&",
"&&&.O+++++++++Oo.&&&&&&&&&.@#@.&&&&.OO..o+++++OOo......&&.oO#.&&&&&.O+++++++++Oo.&&&&&&&&&.+$@.&",
"&&&.OO..o+++++OOo......&&&.O@@.&&&.oOo% .+++++OOOOOOOoo..oOO@.&&&&&.OO..o+++++OOo......&&.+$#@.&",
"&&.oOo% .+++++OOOOOOOoo...Oo@.&&&.oO+oXXO+++++O++++++++Oo.O@.&&&&&.oOo% .+++++OOOOOOOoo..oO#@.&&",
"&.oO+oXXO+++++O++++++++Oo.oo@.&&&. .++OO++++++++++++++++Oo..&&&&&.oO+oXXO+++++O++++++++Oo.@@.&&&",
"&. .++OO++++++++++++++++Oo.@.&&&&.@#$++++++++++++++++++++Oo.&&&&&. .++OO++++++++++++++++Oo..&&&&",
"&.@#$++++++++++++++++++++Oo.&&&&&&.@#$$++++++++++++O+++++Oo.&&&&&.@#$++++++++++++++++++++Oo.&&&&",
"&&.@#$$++++++++++++O+++++Oo.&&&&&&&..@##@@@+++++++Oo+++++Oo.&&&&&&.@#$$++++++++++++++++++Oo.&&&&",
"&&&..@##@@@+++++++Oo+++++Oo.&&&&&&&&&......o+++@##@oO++++Oo.&&&&&&&..@##@@@o++++++++O+++++O.&&&&",
"&&&&&......o+++o##@.O++++o.&&&&&&&&&&&&&&.o.+++.@@@@.oO+Oo.&&&&&&&&&&......o+++@###@oO++++O.&&&&",
"&&&&&&&&&.o.o++O.@@@.O++O..&&&&&&&&&&&&&&.o.++O.......oOOo.&&&&&&&&&&&&&&&.+++.@@@@@.oOO+++o.&&&",
"&&&&&&&&.ooo.O++o...o++Oo.o.&&&&&&&&&&&&.oo.++O.&&&.o.o++o.&&&&&&&&&&&&&&.O++O..........o++O.&&&",
"&&&&&&&&.oo.&.+++.&.+++o.oo.&&&&&&&&&&&&.o.O++o.&&&.o.O++.&&&&&&&&&&&&&&.o++Oo.oo.&.ooo..++O.&&&",
"&&&&&&&&&..&&.++O.&.++O....&&&&&&&&&&&&&&..++O.&&&&&..++O.&&&&&&&&&&&&&&.O++o....&&&...&.++o.&&&",
"&&&&&&&&&&&&&&...&&&...&&&&&&&&&&&&&&&&&&&&...&&&&&&&&...&&&&&&&&&&&&&&&&....&&&&&&&&&&&&...&&&&",
"&&&&&&&&&&&&&&&&&&&&&&&&&&&&&&&&&&&&&&&&&&&&&&&&&&&&&&&&&&&&&&&&&&&&&&&&&&&&&&&&&&&&&&&&&&&&&&&&",
"&&&&&&&&&&&&&&&&&&&&&&&&&&&&&&&&&&&&&&&&&&&&&&&&&&&&&&&&&&&&&&&&&&&&&&&&&&&&&&&&&&&&&&&&&&&&&&&&",
"&&&&&&&&&&&&&&&&&&&&&&&&&&&&&&&&&&&&&&&&&&&&&&&&&&&&&&&&&&&&&&&&&&&&&&&&&&&&&&&&&&&&&&&&&&&&&&&&",
"&&&&&&&&&&&&&&&&&&&&&&&&&&&&&&&&&&&&&&&&&&&&&&&&&&&&&&&&&&&&&&&&&&&&&&&&&&&&&&&&&&&&&&&&&&&&&&&&",
"&&&&&&&&&&&&&&&&&&&&&&&&&&&&&&&&&&&&&&&&&&&&&&&&&&&&&&&&&&&&&&&&&&&&&&&&&&&&&&&&&&&&&&&&&&&&&&&&",
"&&&&&&&&&&&&&&&&&&&&&&&&&&&&&&&&&&&&&&&&&&&&&&&&&&&&&&&&&&&&&&&&&&&&&&&&&&&&&&&&&&&&&&&&&&&&&&&&",
"&&&&&&&&&&&&&&&&&&&&&&&&&&&&&&&&&&&&&&&&&&&&&&&&&&&&&&&&&&&&&&&&&&&&&&&&&&&&&&&&&&&&&&&&&&&&&&&&",
"&&&&&&&&&&&&&&&&&&&&&&&&&&&&&&&&&&&&&&&&&&&&&&&&&&&&&&&&&&&&&&&&&&&&&&&&&&&&&&&&&&&&&&&&&&&&&&&&",
"&&&&&&&&&&&&&&&&&&&&&&&&&&&&&&&&&&&&&&&&&&&&&&&&&&&&&&&&&&&&&&&&&&&&&&&&&&&&&&&&&&&&&&&&&&&&&&&&",
"&&&&&&&&&&&&&&&&&&&&&&&&&&&&&&&&&&&&&&&&&&&&&&&&&&&&.&&&&&&&&&&&&&&&&&&&&&&&&&&&&&&&&&&&&&&&&&&&",
"&&&&&&&&&&&&&&&&&&&&.&&&&&&&&&&&&&&&&&&&&&&&&&&&&&&.o.&&&&&&&&&&&&&&&&&&&&&&&&&&&&&&.&&&&&&&&&&&",
"&&&&&&&&&&&&&&&&&&&.o.&&&&&&&&&&&&&&&&&&&&&&&&&&&&.o+o.&&&&&&&&&&&&&&&&&&&&&&&&&&&&.o.&&&&&&&&&&",
"&&&&&&&&&&&&&&&&&&.o+o.&&&&&&&&&&&&&...&&&&&&&&&&&.o#+..&&&&&&&&&&&&&&&&&&&&&&&&&&.o+o.&&&&&&&&&",
"&&&&&&&&&&&&&&&&&&.o#+..&&&&&&&&&&&.@+O.&&&&&&&&&.o#$#.o..&&&&&&&&&&&&&&&&&&&&&&&&.o#+..&&&&&&&&",
"&&&&.&&&&&&&&&&&&.o#$#.o..&&&&&&&&.@+o.&&&&&&&&&&.O#$+OOOo.&&&&&&&&&&&&&&&&&&&&&&.o#$#.o..&&&&&&",
"&&&.o.&&&&&&&&&&&.O#$+OOOo.&&&&&&.@#+.&&&&&&&&&&.oO#O++++Oo.&&&&&&&....&&&&&&&&&&.O#$+OOOo.&&&&&",
"&&.#O.&&&&&&&&&&.oO#O++++Oo.&&&&&.@#+.&&&&&&&&&&.OOO++++++Oo.&&&&&.O++O.&&&&&&&&.oO#O++++Oo.&&&&",
"&.@$+.&&&&&&&&&&.OOO++++++Oo.&&&&.@#+.&&&&&&&&&.oO+++++++++O.&&&&.@#$$.&&&&&&&&&.OOO++++++Oo.&&&",
"&.@$+.&&&&&&&&&.oO+++++++++O.&&&&&.#Oo.&&......oOO+++++o..OO.&&&&.@#@.&&&&&&&&&.oO+++++++++O.&&&",
"&.@#$+.&&......oOO+++++o..OO.&&&&&.@OOo..ooOOOOOOO+++++. %oOo.&&&.@@O.&&&......oOO+++++o..OO.&&&",
"&&.@#Oo..ooOOOOOOO+++++. %oOo.&&&&&.@O.oO++++++++O+++++OXXo+Oo.&&&.@oO...ooOOOOOOO+++++. %oOo.&&",
"&&&.@@.oO++++++++O+++++OXXo+Oo.&&&&&..oO++++++++++++++++OO++. .&&&.@oo.oO++++++++O+++++OXXo+Oo.&",
"&&&&..oO++++++++++++++++OO++. .&&&&&.oO++++++++++++++++++++$#@.&&&&.@.oO++++++++++++++++OO++. .&",
"&&&&.oO++++++++++++++++++++$#@.&&&&&.oO+++++O++++++++++++$$#@.&&&&&&.oO++++++++++++++++++++$#@.&",
"&&&&.oO++++++++++++++++++$$#@.&&&&&&.oO+++++oO+++++++@@@##@..&&&&&&&.oO+++++O++++++++++++$$#@.&&",
"&&&&.O+++++O++++++++o@@@##@..&&&&&&&.oO++++Oo@##@+++o......&&&&&&&&&.oO+++++oO+++++++@@@##@..&&&",
"&&&&.O++++Oo@###@+++o......&&&&&&&&&&.oO+Oo.@@@@.+++.o.&&&&&&&&&&&&&&.o++++O.@##o+++o......&&&&&",
"&&&.o+++OOo.@@@@@.+++.&&&&&&&&&&&&&&&.oOOo.......O++.o.&&&&&&&&&&&&&&..O++O.@@@.O++o.o.&&&&&&&&&",
"&&&.O++o..........O++O.&&&&&&&&&&&&&&.o++o.o.&&&.O++.oo.&&&&&&&&&&&&.o.oO++o...o++O.ooo.&&&&&&&&",
"&&&.O++..ooo.&.oo.oO++o.&&&&&&&&&&&&&&.++O.o.&&&.o++O.o.&&&&&&&&&&&&.oo.o+++.&.+++.&.oo.&&&&&&&&",
"&&&.o++.&...&&&....o++O.&&&&&&&&&&&&&&.O++..&&&&&.O++..&&&&&&&&&&&&&&....O++.&.O++.&&..&&&&&&&&&",
"&&&&...&&&&&&&&&&&&....&&&&&&&&&&&&&&&&...&&&&&&&&...&&&&&&&&&&&&&&&&&&&&...&&&...&&&&&&&&&&&&&&",
"&&&&&&&&&&&&&&&&&&&&&&&&&&&&&&&&&&&&&&&&&&&&&&&&&&&&&&&&&&&&&&&&&&&&&&&&&&&&&&&&&&&&&&&&&&&&&&&&",
"&&&&&&&&&&&&&&&&&&&&&&&&&&&&&&&&&&&&&&&&&&&&&&&&&&&&&&&&&&&&&&&&&&&&&&&&&&&&&&&&&&&&&&&&&&&&&&&&",
"&&&&&&&&&&&&&&&&&&&&&&&&&&&&&&&&&&&&&&&&&&&&&&&&&&&&&&&&&&&&&&&&&&&&&&&&&&&&&&&&&&&&&&&&&&&&&&&&",
"&&&&&&&&&&&&&&&&&&&&&&&&&&&&&&&&&&&&&&&&&&&&&&&&&&&&&&&&&&&&&&&&&&&&&&&&&&&&&&&&&&&&&&&&&&&&&&&&",
"&&&&&&&&&&&&&&&&&&&&&&&&&&&&&&&&&&&&&&&&&&&.&&&&&&&&&.&&&&&&&&&&&&&&&&&&&&&&&&&&&&&&&&&&&&&&&&&&",
"&&&&&&&&&&&.&&&&&&&&&.&&&&&&&&&&&&&&&&&&&&.o.&&&&&&&.o.&&&&&&&&&&&&&&&&&&&&.&&&&&&&&&.&&&&&&&&&&",
"&&&&&&&&&&.o.&&&&&&&.o.&&&&&&&&&&&&&&&&&&&.Oo.&&&&&.oO.&&&&&&&&&&&&&&&&&&&.o.&&&&&&&.o.&&&&&&&&&",
"&&&&&&&&&&.Oo.&&&&&.oO.&&&&&&&&&&&&&&&&&&&.OOo.....oOO.&&&&&&&&&&&&&&&&&&&.Oo.&&&&&.oO.&&&&&&&&&",
"&&&&&&&&&&.OOo.....oOO.&&&&&&&&&&&&&&&&&&.oO+O.ooo.O+Oo.&&&&&&&&&&&&&&&&&&.OOo.....oOO.&&&&&&&&&",
"&&&&&&&&&.oO+O.ooo.O+Oo.&&&&&&&&&&&&&&&&&.oO++OOOOO++Oo.&&&&&&&&&&&&&&&&&.oO+O.ooo.O+Oo.&&&&&&&&",
"&&&&&&&&&.oO++OOOOO++Oo.&&&&&&&&&&&&&&&&&.o+++++++++++o.&&&&&&&&&&&&&&&&&.oO++OOOOO++Oo.&&&&&&&&",
"&&&&&&&&&.o+++++++++++o.&&&&&&&&&&&&&&&&.oO+++++++++++Oo.&&&&&&&&&&&&&&&&.o+++++++++++o.&&&&&&&&",
"&&&&&&&&.oO+++++++++++Oo.&&&&&&&&&&&&&&&.oO+++++++++++Oo.&&&&&&&&&&&&&&&.oO+++++++++++Oo.&&&&&&&",
"&&&&&&&&.oO+++++++++++Oo.&&&&&&&&&&&&&&&.ooO+++++++++Ooo.&&&&&&&&&&&&&&&.oO+++++++++++Oo.&&&&&&&",
"&&&&&&&&.ooO+++++++++Ooo.&&&&&&&&&&&&&&&.oooOOO+++OOOooo.&&&&&&&&&&&&&&&.ooO+++++++++Ooo.&&&&&&&",
"&&&&&&&&.oooOOO+++OOOooo.&&&&&&&&&&&&&&&&.o.oO+++++Oo.o.&&&&&&&&&&&&&&&&.oooOOO+++OOOooo.&&&&&&&",
"&&&&&&&&&.o.oO+++++Oo.o.&&&&&&&&&&&&&&&&&..oO+++++++Oo..&&&&&&&&&&&&&&&&&.o.oO+++++Oo.o.&&&&&&&&",
"&&&&&&&&&..oO+++++++Oo..&&&&&&&&&&&&&&&&&.oOO+++++++OOo.&&&&&&&&&&&&&&&&&..oO+++++++Oo..&&&&&&&&",
"&&&&&&&&&.oOO.++++++OOo.&&&&&&&&&&&&&&&&&.oooO++...Oooo.&&&&&&&&&&&&&&&&&.oOO+++++++OOo.&&&&&&&&",
"&&&&&&&&&.oo.O.++++Oooo.&&&&&&&&&&&&&&&&&&.oO++.#$#.Oo.&&&&&&&&&&&&&&&&&&.oooO+++...ooo.&&&&&&&&",
"&&&&&&&&&...O#.+++++Oo.&&&&&&&&&&&&&&&&&&.oO++.#$+.++Oo.&&&&&&&&&&&&&&&&&&.oO+++.O@#.o..&&&&&&&&",
"&&&&&&&&&.o.@$O.+++++Oo.&&&&&&&&&&&&&&&&&.o++.#$+.++++o.&&&&&&&&&&&&&&&&&.oO+++.O$$##.o.&&&&&&&&",
"&&&&&&&&&.o.#$+.++++++o.&&&&&&&&&&&&&&&&&.O++.#$+.++++O.&&&&&&&&&&&&&&&&&.o+++.O$#@..+o.&&&&&&&&",
"&&&&&&&&&.O.@#$+.+++++O.&&&&&&&&&&&&&&&&&.O++.@##.++++O.&&&&&&&&&&&&&&&&&.O+++.##@.+++O.&&&&&&&&",
"&&&&&&&&&.OO.@##@o++++O.&&&&&&&&&&&&&&&&&.oO++.o###++Oo.&&&&&&&&&&&&&&&&&.O+++.@#o+++OO.&&&&&&&&",
"&&&&&&&&&.oO+..o###++OO.&&&&&&&&&&&&&&&&&.ooO@#####@Ooo.&&&&&&&&&&&&&&&&&.OO++#o@##++Oo.&&&&&&&&",
"&&&&&&&&&.ooO@#####@OOo.&&&&&&&&&&&&&&&&&.ooo.@@@@@.ooo.&&&&&&&&&&&&&&&&&.oOO@#####@Ooo.&&&&&&&&",
"&&&&&&&&&&.oo.@@@@@.O+o.&&&&&&&&&&&&&&&&&&.oOo.....oOo.&&&&&&&&&&&&&&&&&&.o+O.@@@@@.oo.&&&&&&&&&",
"&&&&&&&&&&.ooo.....o++.&&&&&&&&&&&&&&&&&&&.O+o.&&&.o+O.&&&&&&&&&&&&&&&&&&&.++o.....ooo.&&&&&&&&&",
"&&&&&&&&&&.ooo.&&.o+++.&&&&&&&&&&&&&&&&&&&.++O.&&&.O++.&&&&&&&&&&&&&&&&&&&.+++o.&&.ooo.&&&&&&&&&",
"&&&&&&&&&&&...&&&.O++o&&&&&&&&&&&&&&&&&&&&.O++.&&&.++O.&&&&&&&&&&&&&&&&&&&&o++O.&&&...&&&&&&&&&&",
"&&&&&&&&&&&&&&&&&.ooO.&&&&&&&&&&&&&&&&&&&&&...&&&&&...&&&&&&&&&&&&&&&&&&&&&.Ooo.&&&&&&&&&&&&&&&&",
"&&&&&&&&&&&&&&&&&&&&&&&&&&&&&&&&&&&&&&&&&&&&&&&&&&&&&&&&&&&&&&&&&&&&&&&&&&&&&&&&&&&&&&&&&&&&&&&&"
};
